<svg
              height="512"
              viewBox="0 0 60 60"
              width="512"
              xmlns="http://www.w3.org/2000/svg"
            >
              <g id="Page-1" fill="none" fill-rule="evenodd">
                <g
                  id="040---Measuring-Area"
                  fill="rgb(0,0,0)"
                  fill-rule="nonzero"
                >
                  <path
                    fill="#fa6742"
                    id="Shape"
                    d="m3.736 5.644c-.6256644-.62635283-1.56712103-.8139454-2.38507967-.47524572-.81795863.33869968-1.35120409 1.13693576-1.35092033 2.02224572v50.621c.00110264 1.207942.98005799 2.1868974 2.188 2.188h50.621c.88531.0002838 1.683546-.5329617 2.0222457-1.3509203.3386997-.8179587.1511071-1.7594153-.4752457-2.3850797zm49.247 52.239c-.0247758.0739311-.096185.1219477-.174.117h-6.809v-2c0-.5522847-.4477153-1-1-1s-1 .4477153-1 1v2h-4v-2c0-.5522847-.4477153-1-1-1s-1 .4477153-1 1v2h-4v-2c0-.5522847-.4477153-1-1-1s-1 .4477153-1 1v2h-4v-2c0-.5522847-.4477153-1-1-1s-1 .4477153-1 1v2h-4v-2c0-.5522847-.4477153-1-1-1s-1 .4477153-1 1v2h-4v-2c0-.5522847-.4477153-1-1-1s-1 .4477153-1 1v2h-4v-2c0-.5522847-.44771525-1-1-1s-1 .4477153-1 1v2h-5.812c-.10382953 0-.188-.0841705-.188-.188v-5.812h2c.55228475 0 1-.4477153 1-1s-.44771525-1-1-1h-2v-4h2c.55228475 0 1-.4477153 1-1s-.44771525-1-1-1h-2v-4h2c.55228475 0 1-.4477153 1-1s-.44771525-1-1-1h-2v-4h2c.55228475 0 1-.4477153 1-1s-.44771525-1-1-1h-2v-4h2c.55228475 0 1-.4477153 1-1s-.44771525-1-1-1h-2v-4h2c.55228475 0 1-.4477153 1-1s-.44771525-1-1-1h-2v-4h2c.55228475 0 1-.4477153 1-1s-.44771525-1-1-1h-2v-6.809c-.00473105-.07745126.0426869-.14857817.116-.174.02484813-.01114907.05176532-.01694137.079-.017.0486014.00063414.0946941.02168434.127.058l50.62 50.62c.0587103.0510497.0755597.1352963.041.205z"
                  />
                  <path
                    fill="#fa6742"
                    id="Shape"
                    d="m11.707 27.756c-.2859943-.2859079-.7160366-.3714219-1.0896546-.216678-.3736179.1547439-.6172591.5192821-.6173454.923678v20.537c0 .5522847.4477153 1 1 1h20.536c.4043959-.0000863.7689341-.2437275.923678-.6173454.1547439-.373618.0692299-.8036603-.216678-1.0896546zm.293 20.244v-17.123l17.122 17.123z"
                  />
                  <path
                    fill="#fa6742"
                    id="Shape"
                    d="m57.812 0h-50.621c-.88530996-.00028376-1.68354604.5329617-2.02224572 1.35092033-.33869968.81795864-.15110711 1.75941527.47524572 2.38507967l50.62 50.62c.6256644.6263528 1.567121.8139454 2.3850797.4752457.8179586-.3386997 1.3512041-1.1369357 1.3509203-2.0222457v-50.621c-.0011026-1.20794201-.980058-2.18689736-2.188-2.188zm.188 39.586-6.839 6.839-5.086-5.086 11.925-11.925zm0-13-13.339 13.339-5.086-5.086 18.425-18.425zm-24.586-24.586h10.172l-18.425 18.425-5.086-5.086zm-14.753 11.925-5.086-5.086 6.839-6.839h10.172zm27.753-11.925h10.172l-24.925 24.925-5.086-5.086zm11.586 1.415v10.171l-19.839 19.839-5.086-5.086zm-50.983-1.298c.02477582-.07393113.096185-.12194765.174-.117h10.4l-5.43 5.425-5.1-5.1c-.06122269-.05068273-.07945387-.13686646-.044-.208zm50.867 50.866c-.0701467.0336414-.1540799.0169362-.206-.041l-5.1-5.1 5.422-5.428v10.395c.004731.0774513-.0426869.1485782-.116.174z"
                  />
                </g>
              </g>
            </svg>